<svg xmlns="http://www.w3.org/2000/svg" viewBox="0 0 128 128">
  <rect x="8" y="8" width="112" height="112" rx="24" fill="#3D6FB4"/>
  <rect x="8" y="8" width="112" height="112" rx="24" fill="url(#g)" opacity=".25"/>
  <defs>
    <linearGradient id="g" x1="0" y1="0" x2="1" y2="1">
      <stop offset="0" stop-color="#ffffff"/>
      <stop offset="1" stop-color="#1c2f4a"/>
    </linearGradient>
  </defs>
  <rect x="26" y="34" width="76" height="60" rx="10" fill="#f6f5f4"/>
  <path d="M26 44 a10 10 0 0 1 10-10 h56 a10 10 0 0 1 10 10 v6 H26 z" fill="#35507a"/>
  <circle cx="34" cy="40" r="2.6" fill="#33d17a"/>
  <circle cx="43" cy="40" r="2.6" fill="#e01b24"/>
  <circle cx="52" cy="40" r="2.6" fill="#dc8add"/>
  <rect x="34" y="58" width="34" height="10" rx="5" fill="#3D6FB4"/>
  <rect x="74" y="58" width="20" height="10" rx="5" fill="#c0bfbc"/>
  <rect x="34" y="74" width="12" height="10" rx="3" fill="#ff7800"/>
  <rect x="52" y="74" width="42" height="10" rx="3" fill="#dedadd"/>
  <rect x="50" y="100" width="28" height="6" rx="3" fill="#f6f5f4" opacity=".8"/>
</svg>
